<svg width="24" height="24" viewBox="0 0 24 24" fill="none" xmlns="http://www.w3.org/2000/svg">
<path d="M6.00012 14.0001C5.45012 14.0001 5.00012 14.4501 5.00012 15.0001V18.0001C5.00012 18.5501 5.45012 19.0001 6.00012 19.0001H9.00012C9.55012 19.0001 10.0001 18.5501 10.0001 18.0001C10.0001 17.4501 9.55012 17.0001 9.00012 17.0001H7.00012V15.0001C7.00012 14.4501 6.55012 14.0001 6.00012 14.0001ZM6.00012 10.0001C6.55012 10.0001 7.00012 9.55009 7.00012 9.00009V7.00009H9.00012C9.55012 7.00009 10.0001 6.55009 10.0001 6.00009C10.0001 5.45009 9.55012 5.00009 9.00012 5.00009H6.00012C5.45012 5.00009 5.00012 5.45009 5.00012 6.00009V9.00009C5.00012 9.55009 5.45012 10.0001 6.00012 10.0001ZM17.0001 17.0001H15.0001C14.4501 17.0001 14.0001 17.4501 14.0001 18.0001C14.0001 18.5501 14.4501 19.0001 15.0001 19.0001H18.0001C18.5501 19.0001 19.0001 18.5501 19.0001 18.0001V15.0001C19.0001 14.4501 18.5501 14.0001 18.0001 14.0001C17.4501 14.0001 17.0001 14.4501 17.0001 15.0001V17.0001ZM14.0001 6.00009C14.0001 6.55009 14.4501 7.00009 15.0001 7.00009H17.0001V9.00009C17.0001 9.55009 17.4501 10.0001 18.0001 10.0001C18.5501 10.0001 19.0001 9.55009 19.0001 9.00009V6.00009C19.0001 5.45009 18.5501 5.00009 18.0001 5.00009H15.0001C14.4501 5.00009 14.0001 5.45009 14.0001 6.00009Z" fill="#1B1B1B"/>
</svg>
