<svg width="18" height="20" viewBox="0 0 18 20" fill="none" xmlns="http://www.w3.org/2000/svg">
<path d="M11.6923 16.0001C11.05 16.0001 10.5048 15.7761 10.0567 15.328C9.60866 14.8799 9.38463 14.3347 9.38463 13.6924C9.38463 13.0501 9.60866 12.5049 10.0567 12.0569C10.5048 11.6088 11.05 11.3848 11.6923 11.3848C12.3346 11.3848 12.8798 11.6088 13.3279 12.0569C13.7759 12.5049 14 13.0501 14 13.6924C14 14.3347 13.7759 14.8799 13.3279 15.328C12.8798 15.7761 12.3346 16.0001 11.6923 16.0001ZM2.3077 19.5001C1.80257 19.5001 1.375 19.3251 1.025 18.9751C0.675 18.6251 0.5 18.1975 0.5 17.6924V4.30784C0.5 3.80271 0.675 3.37514 1.025 3.02514C1.375 2.67514 1.80257 2.50014 2.3077 2.50014H3.69233V1.15397C3.69233 0.934749 3.76573 0.751741 3.91253 0.604941C4.05931 0.458157 4.24232 0.384766 4.46155 0.384766C4.68077 0.384766 4.86378 0.458157 5.01058 0.604941C5.15736 0.751741 5.23075 0.934749 5.23075 1.15397V2.50014H12.8077V1.13474C12.8077 0.921925 12.8794 0.743724 13.023 0.60014C13.1666 0.456557 13.3448 0.384766 13.5576 0.384766C13.7704 0.384766 13.9486 0.456557 14.0922 0.60014C14.2358 0.743724 14.3076 0.921925 14.3076 1.13474V2.50014H15.6923C16.1974 2.50014 16.625 2.67514 16.975 3.02514C17.325 3.37514 17.5 3.80271 17.5 4.30784V17.6924C17.5 18.1975 17.325 18.6251 16.975 18.9751C16.625 19.3251 16.1974 19.5001 15.6923 19.5001H2.3077ZM2.3077 18.0001H15.6923C15.7692 18.0001 15.8397 17.9681 15.9038 17.904C15.9679 17.8398 16 17.7693 16 17.6924V8.30784H1.99997V17.6924C1.99997 17.7693 2.03202 17.8398 2.09612 17.904C2.16024 17.9681 2.23077 18.0001 2.3077 18.0001ZM1.99997 6.80787H16V4.30784C16 4.23091 15.9679 4.16038 15.9038 4.09627C15.8397 4.03217 15.7692 4.00012 15.6923 4.00012H2.3077C2.23077 4.00012 2.16024 4.03217 2.09612 4.09627C2.03202 4.16038 1.99997 4.23091 1.99997 4.30784V6.80787Z" fill="white"/>
</svg>
