<svg width="24" height="24" viewBox="0 0 24 24" fill="none" xmlns="http://www.w3.org/2000/svg">
<path d="M20.7832 3.21745C20.682 3.1167 20.5541 3.04695 20.4146 3.01639C20.2751 2.98584 20.1298 2.99574 19.9957 3.04495L3.49573 9.04495C3.35343 9.09892 3.23092 9.19491 3.14447 9.32016C3.05802 9.44542 3.01172 9.59401 3.01172 9.7462C3.01172 9.89839 3.05802 10.047 3.14447 10.1722C3.23092 10.2975 3.35343 10.3935 3.49573 10.4474L9.93823 13.0199L14.6932 8.24995L15.7507 9.30745L10.9732 14.0849L13.5532 20.5275C13.6088 20.667 13.705 20.7866 13.8294 20.8709C13.9537 20.9551 14.1005 21.0001 14.2507 20.9999C14.4023 20.9968 14.5494 20.9479 14.6725 20.8595C14.7957 20.7711 14.8892 20.6475 14.9407 20.5049L20.9407 4.00495C20.9918 3.87226 21.0042 3.72777 20.9763 3.58834C20.9484 3.44891 20.8814 3.32028 20.7832 3.21745Z" fill="white"/>
</svg>
