<svg width="18" height="18" viewBox="0 0 18 18" fill="none" xmlns="http://www.w3.org/2000/svg">
<path d="M17.7832 0.217449C17.682 0.116704 17.5541 0.046952 17.4146 0.0163941C17.2751 -0.0141638 17.1298 -0.00425713 16.9957 0.0449493L0.495733 6.04495C0.353434 6.09892 0.230923 6.19491 0.144471 6.32016C0.0580196 6.44542 0.0117188 6.59401 0.0117188 6.7462C0.0117188 6.89839 0.0580196 7.04698 0.144471 7.17223C0.230923 7.29749 0.353434 7.39348 0.495733 7.44745L7.69573 10.3274L10.5757 17.5275C10.6298 17.6635 10.7226 17.7807 10.8425 17.8647C10.9625 17.9487 11.1044 17.9957 11.2507 17.9999C11.4023 17.9968 11.5494 17.9479 11.6725 17.8595C11.7957 17.7711 11.8892 17.6475 11.9407 17.5049L17.9407 1.00495C17.9918 0.872257 18.0042 0.727772 17.9763 0.588342C17.9484 0.448912 17.8814 0.320282 17.7832 0.217449ZM11.2507 15.15L9.15823 9.89995L12.7507 6.30745L11.6932 5.24995L8.07073 8.87245L2.85073 6.74995L15.9982 2.00245L11.2507 15.15Z" fill="white"/>
</svg>
