<svg width="24" height="24" viewBox="0 0 24 24" fill="none" xmlns="http://www.w3.org/2000/svg">
<path d="M15.8077 20.5C15.3987 20.5 15.0465 20.3522 14.751 20.0567C14.4555 19.7612 14.3077 19.4089 14.3077 19V14.8077C14.3077 14.3987 14.4555 14.0465 14.751 13.751C15.0465 13.4555 15.3987 13.3077 15.8077 13.3077H20C20.4089 13.3077 20.7612 13.4555 21.0567 13.751C21.3522 14.0465 21.5 14.3987 21.5 14.8077V19C21.5 19.4089 21.3522 19.7612 21.0567 20.0567C20.7612 20.3522 20.4089 20.5 20 20.5H15.8077ZM2.5 17.6538V16.1538H11.1154V17.6538H2.5ZM15.8077 10.6923C15.3987 10.6923 15.0465 10.5445 14.751 10.249C14.4555 9.9535 14.3077 9.60127 14.3077 9.1923V4.99998C14.3077 4.59101 14.4555 4.23878 14.751 3.94328C15.0465 3.64776 15.3987 3.5 15.8077 3.5H20C20.4089 3.5 20.7612 3.64776 21.0567 3.94328C21.3522 4.23878 21.5 4.59101 21.5 4.99998V9.1923C21.5 9.60127 21.3522 9.9535 21.0567 10.249C20.7612 10.5445 20.4089 10.6923 20 10.6923H15.8077ZM2.5 7.84613V6.34615H11.1154V7.84613H2.5Z" fill="white"/>
</svg>
