<svg width="24" height="24" viewBox="0 0 24 24" fill="none" xmlns="http://www.w3.org/2000/svg">
<path d="M18.6351 10.8655C18.0723 10.8655 17.4646 10.6991 16.812 10.3665C16.1594 10.0338 15.5473 9.57319 14.9755 8.98474C14.4037 8.39627 13.9515 7.77577 13.6188 7.12322C13.2861 6.47065 13.1197 5.86488 13.1197 5.30592C13.1197 5.08668 13.1486 4.89085 13.2063 4.71842C13.264 4.54598 13.3505 4.40208 13.4658 4.28672C13.8607 3.89183 14.6726 3.55112 15.9014 3.26459C17.1303 2.97806 18.344 2.85017 19.5427 2.88094C19.8504 2.90146 20.1049 2.93703 20.3062 2.98767C20.5075 3.03832 20.6588 3.11428 20.76 3.21556C20.8511 3.30658 20.9245 3.44247 20.9802 3.62324C21.036 3.80401 21.0741 4.03285 21.0947 4.30977C21.1459 5.50463 21.0341 6.73123 20.7591 7.98957C20.4841 9.24788 20.144 10.0796 19.7389 10.4847C19.6171 10.6065 19.4591 10.7004 19.2649 10.7665C19.0706 10.8325 18.8607 10.8655 18.6351 10.8655ZM19.3274 7.20212C19.4184 6.8252 19.4867 6.40116 19.5322 5.92999C19.5777 5.45882 19.612 4.93733 19.6351 4.36552C19.1415 4.34885 18.6565 4.36744 18.1802 4.42129C17.7039 4.47514 17.2542 4.55079 16.8311 4.64824C17.1042 4.81362 17.3603 4.98894 17.5994 5.17419C17.8385 5.35946 18.0587 5.55273 18.26 5.75402C18.4844 5.97838 18.685 6.20916 18.862 6.44634C19.0389 6.68352 19.194 6.93545 19.3274 7.20212ZM18.6351 9.36552C18.594 8.99373 18.4434 8.57162 18.1831 8.09919C17.9229 7.62674 17.5921 7.19501 17.1908 6.80399C16.7934 6.40656 16.3652 6.08027 15.9062 5.82514C15.4472 5.57002 15.0319 5.41682 14.6601 5.36552C14.6934 5.74885 14.8367 6.18058 15.0899 6.66072C15.3431 7.14085 15.6562 7.56745 16.0293 7.94052C16.4293 8.34052 16.8652 8.66968 17.337 8.92802C17.8088 9.18635 18.2415 9.33218 18.6351 9.36552ZM21.3005 18.3443L16.7063 13.7501H6.70625L1.65625 8.70012L2.70047 7.65592L7.2947 12.2501H17.2947L22.3447 17.3001L21.3005 18.3443ZM8.2505 21.4905V17.7982C8.2505 17.2995 8.4271 16.8735 8.7803 16.5203C9.1335 16.1671 9.55946 15.9905 10.0582 15.9905H13.9428C14.4415 15.9905 14.8674 16.1671 15.2206 16.5203C15.5738 16.8735 15.7505 17.2995 15.7505 17.7982V21.4905H8.2505Z" fill="white"/>
</svg>
