<svg width="24" height="24" viewBox="0 0 24 24" fill="none" xmlns="http://www.w3.org/2000/svg">
<path d="M18.634 10.8655C18.0712 10.8655 17.4635 10.6991 16.811 10.3665C16.1584 10.0338 15.5462 9.57319 14.9744 8.98474C14.4027 8.39627 13.9504 7.77577 13.6177 7.12322C13.285 6.47065 13.1187 5.86488 13.1187 5.30592C13.1187 5.08668 13.1475 4.89085 13.2052 4.71842C13.2629 4.54598 13.3495 4.40208 13.4648 4.28672C13.8597 3.89183 14.6715 3.55112 15.9004 3.26459C17.1292 2.97806 18.343 2.85017 19.5417 2.88094C19.8494 2.90146 20.1039 2.93703 20.3052 2.98767C20.5065 3.03832 20.6577 3.11428 20.759 3.21556C20.85 3.30658 20.9234 3.44247 20.9792 3.62324C21.035 3.80401 21.0731 4.03285 21.0936 4.30977C21.1449 5.50463 21.033 6.73123 20.758 7.98957C20.483 9.24788 20.143 10.0796 19.7378 10.4847C19.6161 10.6065 19.4581 10.7004 19.2638 10.7665C19.0696 10.8325 18.8597 10.8655 18.634 10.8655ZM19.3263 7.20212C19.4174 6.8252 19.4856 6.40116 19.5311 5.92999C19.5767 5.45882 19.611 4.93733 19.634 4.36552C19.1404 4.34885 18.6555 4.36744 18.1792 4.42129C17.7029 4.47514 17.2532 4.55079 16.8301 4.64824C17.0968 4.81362 17.3481 4.98734 17.584 5.16939C17.8199 5.35144 18.0385 5.53991 18.2398 5.73479C18.4706 5.95916 18.676 6.19313 18.8561 6.43672C19.0363 6.68032 19.193 6.93545 19.3263 7.20212ZM18.634 9.36552C18.5994 9.00013 18.4504 8.58282 18.1869 8.11359C17.9235 7.64437 17.5847 7.20784 17.1706 6.80399C16.7667 6.40014 16.3385 6.07066 15.886 5.81554C15.4334 5.56041 15.0244 5.4104 14.659 5.36552C14.6924 5.74885 14.834 6.18058 15.084 6.66072C15.334 7.14085 15.6456 7.56745 16.0186 7.94052C16.4186 8.34052 16.8545 8.66968 17.3263 8.92802C17.7981 9.18635 18.234 9.33218 18.634 9.36552ZM16.7052 13.7501H7.45329C7.21228 13.7501 6.98054 13.7033 6.75809 13.6097C6.53566 13.5161 6.34239 13.3873 6.17829 13.2232L2.17254 9.22702C2.03408 9.08857 1.96484 8.91293 1.96484 8.70012C1.96484 8.4873 2.03408 8.31167 2.17254 8.17322C2.31099 8.03475 2.48663 7.96552 2.69944 7.96552C2.91226 7.96552 3.08789 8.03475 3.22634 8.17322L7.29367 12.2501H16.5456C16.7866 12.2501 17.0183 12.2969 17.2408 12.3905C17.4632 12.4841 17.6565 12.6129 17.8206 12.7771L21.8263 16.7732C21.9648 16.9117 22.034 17.0873 22.034 17.3001C22.034 17.5129 21.9648 17.6886 21.8263 17.827C21.6879 17.9655 21.5123 18.0347 21.2994 18.0347C21.0866 18.0347 20.911 17.9655 20.7725 17.827L16.7052 13.7501ZM9.15329 21.4905C8.89561 21.4905 8.68055 21.4042 8.50812 21.2318C8.33569 21.0594 8.24947 20.8443 8.24947 20.5866V17.7982C8.24947 17.2995 8.42607 16.8735 8.77927 16.5203C9.13247 16.1671 9.55843 15.9905 10.0571 15.9905H13.9417C14.4405 15.9905 14.8664 16.1671 15.2196 16.5203C15.5728 16.8735 15.7494 17.2995 15.7494 17.7982V20.5866C15.7494 20.8443 15.6632 21.0594 15.4908 21.2318C15.3183 21.4042 15.1033 21.4905 14.8456 21.4905H9.15329ZM9.74942 19.9905H14.2495V17.7982C14.2495 17.7084 14.2206 17.6347 14.1629 17.577C14.1052 17.5193 14.0315 17.4905 13.9417 17.4905H10.0571C9.96739 17.4905 9.89367 17.5193 9.83597 17.577C9.77827 17.6347 9.74942 17.7084 9.74942 17.7982V19.9905Z" fill="white"/>
</svg>
