<svg width="24" height="24" viewBox="0 0 24 24" fill="none" xmlns="http://www.w3.org/2000/svg">
<path fill-rule="evenodd" clip-rule="evenodd" d="M20.249 12.0001V12.5701L21.6665 13.8676C21.9281 14.097 22.1019 14.4102 22.158 14.7536C22.2141 15.0971 22.149 15.4493 21.974 15.7501L20.264 18.7501C20.1324 18.9779 19.9433 19.1671 19.7156 19.2987C19.4879 19.4304 19.2295 19.4998 18.9665 19.5001C18.8035 19.5013 18.6413 19.476 18.4865 19.4251L16.6715 18.8101C16.3542 19.0192 16.0235 19.2071 15.6815 19.3726L15.299 21.2626C15.2304 21.6079 15.0425 21.918 14.7683 22.1388C14.4941 22.3595 14.1509 22.4768 13.799 22.4701H10.259C9.90699 22.4768 9.56386 22.3595 9.28963 22.1388C9.0154 21.918 8.82755 21.6079 8.75897 21.2626L8.37647 19.3726C8.03685 19.2071 7.70862 19.0192 7.39397 18.8101L5.57147 19.4251C5.41661 19.476 5.25448 19.5013 5.09147 19.5001C4.82842 19.4998 4.57008 19.4304 4.34234 19.2987C4.11461 19.1671 3.92549 18.9779 3.79397 18.7501L2.02397 15.7501C1.84089 15.4464 1.77133 15.0876 1.82762 14.7375C1.88391 14.3874 2.06242 14.0686 2.33147 13.8376L3.74897 12.5776V12.0001V11.4301L2.33147 10.1326C2.06981 9.90316 1.89605 9.58991 1.83996 9.24648C1.78386 8.90305 1.84891 8.5508 2.02397 8.25006L3.79397 5.25006C3.92549 5.02226 4.11461 4.83305 4.34234 4.70141C4.57008 4.56977 4.82842 4.50033 5.09147 4.50006C5.25285 4.48908 5.41494 4.50428 5.57147 4.54506L7.35647 5.19006C7.6737 4.98092 8.00442 4.79301 8.34647 4.62756L8.72897 2.73756C8.79755 2.39226 8.9854 2.08209 9.25963 1.86134C9.53386 1.64058 9.87699 1.52332 10.229 1.53006H13.739C14.0909 1.52332 14.4341 1.64058 14.7083 1.86134C14.9825 2.08209 15.1704 2.39226 15.239 2.73756L15.6215 4.62756C15.9611 4.79305 16.2893 4.98097 16.604 5.19006L18.4265 4.57506C18.5813 4.52414 18.7435 4.49881 18.9065 4.50006C19.1695 4.50033 19.4279 4.56977 19.6556 4.70141C19.8833 4.83305 20.0724 5.02226 20.204 5.25006L21.974 8.25006C22.1597 8.55125 22.2329 8.90839 22.1808 9.25836C22.1286 9.60833 21.9544 9.9286 21.689 10.1626L20.249 11.4226V12.0001ZM9.49896 15.7417C10.239 16.2362 11.109 16.5001 11.999 16.5001C12.5916 16.5061 13.1795 16.3939 13.7282 16.1698C14.2769 15.9458 14.7753 15.6146 15.1944 15.1955C15.6135 14.7764 15.9447 14.278 16.1687 13.7293C16.3928 13.1806 16.505 12.5927 16.499 12.0001C16.499 11.1101 16.2351 10.2401 15.7406 9.50006C15.2462 8.76004 14.5434 8.18326 13.7211 7.84267C12.8988 7.50207 11.994 7.41296 11.1211 7.58659C10.2482 7.76022 9.44638 8.18881 8.81704 8.81814C8.18771 9.44748 7.75913 10.2493 7.58549 11.1222C7.41186 11.9951 7.50097 12.8999 7.84157 13.7222C8.18216 14.5445 8.75894 15.2473 9.49896 15.7417ZM10.8401 9.20967C11.2083 9.06217 11.6025 8.99089 11.999 9.00012C12.3955 8.99089 12.7898 9.06217 13.1579 9.20967C13.5261 9.35716 13.8605 9.5778 14.1409 9.85824C14.4213 10.1387 14.642 10.4731 14.7895 10.8412C14.937 11.2094 15.0083 11.6036 14.999 12.0001C15.0083 12.3966 14.937 12.7909 14.7895 13.159C14.642 13.5272 14.4213 13.8616 14.1409 14.142C13.8605 14.4224 13.5261 14.6431 13.1579 14.7906C12.7898 14.9381 12.3955 15.0094 11.999 15.0001C11.6025 15.0094 11.2083 14.9381 10.8401 14.7906C10.472 14.6431 10.1376 14.4224 9.85714 14.142C9.5767 13.8616 9.35606 13.5272 9.20857 13.159C9.06107 12.7909 8.98979 12.3966 8.99903 12.0001C8.98979 11.6036 9.06107 11.2094 9.20857 10.8412C9.35606 10.4731 9.5767 10.1387 9.85714 9.85824C10.1376 9.5778 10.472 9.35716 10.8401 9.20967Z" fill="white"/>
</svg>
